<?xml version="1.0" encoding="UTF-8"?>
<svg version="1.1" viewBox="0 0 1920 1080" width="1920" height="1080" xmlns="http://www.w3.org/2000/svg">
<path transform="translate(0)" d="m0 0h1920v1080h-1920z" fill="#4DA2E3"/>
<path transform="translate(37,621)" d="m0 0 3 2-1 5v8l2 1v-2h2l2 5-1 8-4 2-1 3h2v-3h9l1 1v5h-3l-1 4 6 3 2 2v15l3-1 3 1 1 7 2 2v6h-2l3 5 1-2 4 1v4l-5 4-1 3 3 1 5 5h2v8h-2l1 3-2 4 3-1 1-3h6l-1-5-1-2 1-4h2l1-4 3-3-1-9 5-4 3-5 2-7 1-3h2l2-5 1-1-1-11 4-2v-6l2-6h3l-1-3 4 1v5l-1 1v7l4-1 2 3v10l1 2-1 2h3v-2l4 2v6l-2 4 5 3 1 1v10l1 3 6 2-1 6 2 2v7l-1 2 1 4h2l1-4 4 2 1 3-6 4h-2v3l3 1 1 3 6 3 1 3-2 6 1 2-4 4 3-1 1 3 6 1v-2h3l1 2v9l-2 1-3-2 1-2-3 3v3l3 1-1 3h-2v2l5 1 7 3-1 9-4-1v7l3 3h-2v2l4-1 6 3 1 4h-4v4l4-2h3v12h-3l-1-2-4 1 1 6h4v5h5l7 3 3 1-3-4v-5h-3l-1-5 5-2 2-7 3-1 2-4v-3l1-5h-3v-2l-2-1 4-4 3-1-1-5 2-3h2v-8h3l1-5 3-8-1-3h4l-1-6 2-2 1-7 5-1-1 7 4 2v8l4 1-1 5-1 2 4 1 1 9 3 1 2 6-1 5 5 1-1 4h-3l3 5 3 2-1 8-1 2 7 1 1 1v5l-3-1-1 3h2v3l6 3-1 4-2 4v5l5-1 2 3-2 2 4 1v7h-5v2l3 2v7l5 2 1 4-3 2-1 5 2 3-1 5-1 3h3l2 2 7-2 1-3h3v-3h2v-2h2l2-5 2-3h2l1-4 2-4h3l1-4 3-4h2v-2h2l1-3 4-1v-2h3v-2l4-4 4-12 3-1v3h2l1 8h2v4l14-1v-2l-6-2v-9l-2-1v-5h2v-17l5-1-1-10 4-4 1-8h2v-8l3-8 4-2h3l3 5 2 9v4h2l2 13 2 2 1 5 2-5 3-2 1-7 4-16 2-2 2-8h2l7 18v6h2l2 6-1 7 3 1v6h2v16h2l2 10v11l36 1v10l14-1v-4l2-1h16l16 11 10 4 6 5v2l5 2 7 4 1-6 3 1 4 9 5 6 2 8h2l3 3v3h2v2l4 1 10 4 25 1 7 2v2h32v-2h8v-2l5-2h3v-2h3v-2h5v-3l9-7 4-2h3v-2h21l10 3 1-10h-2l-1-3h2l1-19 4-1v-10l1-2h3v-11l2-3 3-10 5-6 4 4v2h2l3 12 2 3 1 9h2l1 9 1 7 2 9v7l3 12-3 4-8 1-5 1-2 4 14-2 9-3 4-9h2l1-4 2-4h3v-5l5-5h3v2l8 1v2l4 1 12 4v2l4 2 9 3 9 1-1-4-9-2v-2h-6v-8h2l-4-4 1-7 2-4 1-10 3-5-1-6 5-2v-10l1-8h2l1-7 3-5 1-4h2l5 13 1 7 1 5h2l1 4 1 3 1 8 2 4 6-1 1-1 1-9 4-1 2-7-1-2 3-12 3-3 2-4 4 2 4 16 2 7 4 6 2 10 1 10 1 8 5 3 3 5 2 1v4h2l3 6v2l3 1v3l4 1 4 2v2l8 1v2l16 1 8 1 2-4h3v-3l-4-3 4-3 1-3h2v-11l2-7h3l1-7 1-1 1-8 4 1 3 8 3 9 1 1v5h2l1 10h2l2 7 1-1v-6l2-4 2-1 1-4-2-1h2l1-5 2-7 3-12h2l1-4 3-7 2-5 2 4 1 4h2l4 11 2 7 1 4 3 7v3l2 4-1 4h2v10l8-2h8v-2l8-1v-2l12-5 4-1v-2l5-3h5l2-4 4-1v-3l5-2h3v-2l5-3h3l2-4 12-7h2v2l4-2h12v-2h16l1-8 2-4h2l3 8v3h8l8-1v-2h4l1-3h3v-2l5-5 2-4v-8l-1-2h14l2 1 31 1 3 1v2h26l13-6 1-2 6-3h2v-2h16l10 4 8 1-3-2 7-5 10-1 5-2h3v-2l8-4 5-5 2-8 1-13 7-1 17 1 9 3 6 3 2 2h3l1-6-3-1 2-7 2-3 1-8-1-3 2-1 1-7-1-4 5-1 1-9 2-12 4-10 1-3h3l4 13 1 6v5l3 1v5h2v7l4 9-1 3 1 6 5 1 1-8 1-1 3-15 2-1 2-7h4l6 21v3h2l3 17 2 6 1 10 1 11 2 4v8l-9 2-8-1v2l19 1h21l8 3 9 4 4 3v2h3v2l5 2 3 1v3l4 1 4 2v2l4 1v2h4v3l5 2 3 1v2h4l1 2 3 1 40 1v-5l-8-1v-2l-8-1-1-19 1-8h2l-1-4 1-2h2v-8l2-3 3-1 1-6h2v-8h2v-2h2v2h2v-8l-3-1-1-4 3-7h2l5 12 1 1v7h2l2 7 6 1 2-16 3-12 3-3 3 1 2 3v3h2l2 11 3 7 2 6 1 8 2 5 1 19 1 6h2v2h2v-8h-2v-8h3l1-14 1-1 1-9 4-3-2-5 2-3h2l1-10 2-4 2-9 1-2h4l4 11 1 1v8h2l3 8v8h2v8h2v16h2l-1 8h3v14h6l10 5v2l8 2 4-7 2-8h2l1-2 6 15 2 7 2 1 9 1 1-5 3-3 2-6h-2l1-4 2-4h2l-1-4 3-3 3-12h4l7 18 1 1v8h2v6h8v2h2l4 5 9 2h20l7-2-1-4-1-6 4-1 3-10v-3h-7l-13 3-11 1v-2l16-4 5-1h13l-1-10-1-3 6 1-1-5 3-1 1-9 6-7 1-10h2l1-6h2l1-8h2v-2l3 1v6l3 3v8h4v4h-2l5 6v7l4 1v5l1 3h2l3 6-4 2 2 6 4 2 5 3 1-4 5 2 1-3h3v-4l5 1v-5l-7-6v-2h-2l1-4 3-1 5 3v-6-4h-5v-5l1-4v-4l5-1-1-4 3-3 8 1v3l3-3 1-6-4-2v-6l-3-2h-3l-1-8 7-3 3-7 2-5h3l2-7h3l-1-8v-2l-5-5-1-3 4-2 1-3 6-1-1-10h2l1-4 3-5-1-7 4-2 4-7 1-4h2v-7h2v-4l-3-1v-2l6 1v-5l-1-3v-3h4v-7l1-4v-2h4l-1-3 4 1v5l-1 1v6h4l2 4 1 13h2l1-3 3 2v8l-3 3 5 1v2h2l1 8-1 3v3l6 1 1 4 2 10-3 5h2l1 2 1-2 5 1v4l-5 3h-2l1 3 3 2v3h3l1 3v357h-1920v-374l1-2h2l1-3h4l-2-6 3-6 4-7-1-6 1-2h3v-2h2l1-4 5-12 4-6 1-6-2-2 3-5h2v-8l2-5h3z" fill="#0E293E"/>
<path transform="translate(405,339)" d="m0 0h38l3 3 1 4 5 5 2 7 2 5v3h2l1 4 3 1 7 12 2 4 3 3 1 4 3 4 2 2 6 12 4 5v2l6 5 5 5 3 1 7 8 3 2 2 5v11h2l4 7v5l3 8 5 5 5 6 5 4v3l4 2 5 4 3 1v2l3-1 8 4 5 2 3 2v2h2v2l3 1 6 7 2 1v2l4 2 3 2v2l4 2 3 5 4 4 2 4h2v2l4 2 4 5 5 5 2 12 4 10 3 5v3l4 2 5 2 5 4 7 2v-2h2l3 6 1 8 1 3 4 1 4 6v2h3l5 7 5 3v2l2 1v2l5 2 2 4 2-1 2 2v3l2 1 6 7 4 2 5 2 4 5 4 2 5 4 2 4h2v2l6 1 4 3v5h2l2 5h2l2 7 4 1v2l6 2 4 5 2 1v2h2v2l6 2 1 3 5 1 7 8 10 10 5 2v2l4 1 3 2v2l5 2v2l3 1v2l5 2 2 1v2h3l5 5 12 4 2-6 8-10h2l1-6 5-7 2-1h12l12 3v2l10 2 6 4 10-2 11-6 8-5h3v-2l6-3h2v-2l16-5 18-7 4-3h2v-2l8-4 6-5 9-6 11-11 9-11 3-1h10l14 2 6 4 10 9 2 5h2l6 7 8 5v2l5 2 3 1 26 1 14 6 5-1 1-2 5-3 3-4 2-4h2l2-5 2-2 2-3h2l2-4 4-7h2l1-5 3-3h2l1-4 3-1 2-4 5-7h2l1-5 7-9 4-6 3-3h2l2-5 4-5 1-2 3-1 4-6h2l2-4 5-3 5-5 4-3h2l1-7 1-3h2v-2h2v-2l4-2h18l3-6 6-8 5-4 1-4 4-8 4-2 1-2 3-2 2-4h2v-2l5-2v-2l10-3 6-3 6-4h2v-2l8-3 5-5h3l2-6 1-2h2l3-6h24l2 1 1-3 2-1 2-4 6-3 8-6h8l1-2 7-1 5-7h2l1-5h-3l-1-2-7-3-2-1-1-7-4-4v-2l-2-1 1-1 30 1 4 3 7 3 9 4 7 4 3 6 2 1 3 5 7 6 10 7 7 4 3 3 6 3 4 4v2l7 2 5 4 11 6 12 5 7 3 6 2v2h6l6 4 4 4v2l5 2 8 6v2l3 1v2h3l5 6v2h2v3l4 2 2 3v3l4 1 10 13v2h2l5 5 1 3 5 2 2 3 3 1v2l4 2 4 4v2l5 2 3 4v2l4 1 4 3v2h2v2l4 2 13 10 5 2v2l4 2 7 5 10 4 10 10 17 11 5 5 8 10 8 7 7 7 5-1 6-8 4-7 8-7 5-2v-2l10-4 36-1 8-5h2v-2l6-4h2v-2l9-4 5-4 15-1 1-3 5 1-2 1-2-1 3 3v4h-2v7h-2l-1 6-4 6-4 1 2 8-4 5-1 3h-2l2 10-1 1h-6l-1 4-4 1 5 5 1 3 2 1-1 5 1 4-2 1-2-1-1 5-1 2-3 1-3 10-5 4h-4l2 6-1 2 4-1 3 4v5l3 2v6l-2 3h-2v-3h-8l-2 4v2l-5 2 1 6-2 6h5l2 4h-2v6l-7-2-2 4h2v2l3 1 5 5-1 5-5-1v4l-3 1-1 2-5-2-1 4-5-2-5-5-1-4 3-3-2-2v-3h-2l-2-3v-5l-3-1-1-9-4-2v-2h2v-4h-4l-2-10h-2v-7l-2-1v2h-2v6l-1 2h-2v7l-3-1 1 4-2 7-5 6-2 9-2 1v5h-5l1 3v5l1 2-1 2-18 2-16 3v2l2-1 14-2 8-2 7 1 1 5-4 9h-4l3 7-1 4-7 2h-20l-9-2-4-4v-2h-2v-2l-6 1-2-1v-6h-2l-1-8-4-8-4-11h-2l-3 12-3 3v4h-2l-1 4-2 4h2l-1 6-4 4-1 4h-9l-3-2-6-18-2-2h-2l-1 8-4 7-4 1-5-3v-2l-4-1-6-3-6-1v-14h-3l1-8h-2v-16h-2v-8h-2l-2-10-1-6h-2l-1-8-2-3-2-9h-4l-2 11-3 9-1 5h-2l-1 4 2 4-3 3h-2v9l-1 1-1 12-1 2h-3v8h2v8h-2v-2h-2l-2-6-1-21-2-3-2-13-3-4-2-7v-8h-2l-3-6-4 2-3 12-2 14-1 2h-6l-2-6v-2h-2l-1-7-4-9-1-4-2 1-2 8 3 3 1 5-1 3h-2v-2h-2v2h-2v8h-2v6l-2 2-2-1-2 11h-2v6h-2v27l8 1v2l8 1v5h-40l-4-2v-2h-4v-2l-4-1-4-2v-3h-4l-1-2-3-1v-2l-4-1-4-2v-3l-4-1-4-2v-2h-3v-2l-14-7-7-2h-28l-10-1-2-1v-2l5-1 4 1 8-1-2-11-1-1-2-20-1-5-3-13v-6h-2l-5-16-1-8h-4l-1 7-3 1-2 15-3 9h-5l-2-7 2-1-4-10-1-1 1-7h-2l-1-5-2-1-1-7-3-9-1-8h-3l-1 6-4 10-1 15-2 4h-5l2 5-1 8h-2l1 6-2 6-4 8 4 1-1 6-4 1-3-3-10-4-13-2h-15v13l-3 9-8 7-5 1v2l-8 3-10 1-6 4 3 3-9-1-10-4-16-1v2l-5 3h-3l-1 3-13 6h-21l-5-1v-2l-34-1-2-1h-13l1 1v8l-5 8-3 1v2l-3 1-1 2h-4v2l-8 2h-6l-2-1-3-8v-3h-2l-3 12h-16v2l-12 1-4 1v-2l-14 8-2 3-5 3h-3v2l-4 2h-4v3l-5 3-1 2-6 2-4 1v2l-10 5-6 1v2l-8 1v2l-10 2h-6v-10h-2v-6l-3-3 1-3-3-4v-2l-1-4-2-7-3-8v-3h-2l-3-7-3 9-3 6h-2v6l-2 3-1 8-3 7v5l-3 1-1 10-1 4-3-4v-6h-2l-2-7 1-3h-2l-5-15-3-8-3-1v8l-3 8h-3v6l-1 1-1 11h-2l-1 4-3 2 4 3-1 3-4 2-1 2-16-1-8-1v-2l-8-1v-2l-4-1-4-2-1-3-3-3-2-6h-2v-4l-3-1-4-6-4-2-1-8-1-10-2-10-5-8-1-5-4-16-3-1-1 4-3 2-3 12v3l-1 4-1 2-3 1-1 9-4 3-5-1-3-7v-7l-2-3 1-2h-2l-2-5-2-9-3-8v-3h-2l-1 6-3 7-1 3h-2v15l-1 3-4 3 1 5-3 5-1 10-3 7v4l3 2v2h-2v8h6v2l9 1 1 5h-9l-9-3-4-3v-2l-6-1-10-4v-2l-8-1v-2l-6 2-2 8h-3l-1 4-2 4h-2l-1 5-3 5-9 3-4 1h-10l1-4 2-2h8l5-2 1-3-3-12-2-20-1-2v-9h-2l-3-11-3-8v-5h-2l-3-5-5 5-4 12-1 1-1 11h-3l-1 12-4 1v11l-1 8-1 3h2v11l-11-3-21-1v2l-10 5-4 4h-2v3h-5v2h-3v2l-5 2h-3v2h-8v2h-32v-2l-7-1-25-1-10-4-4-2v-2h-2v-3l-3-1v-2h-2l-4-9-6-8-2-6-2-1-1 6h-4v-2l-5-2-3-2v-2l-4-2-3-3-9-3-10-7-6-4h-18l1 5h-15v-10h-36l-1-2v-10l-1-2v-8h-2v-16h-2l-1-6-2-1v-7l-1-1v-5h-2l-3-12-4-9v-3h-2l-1 8-3 4-4 18-1 4-3 1-1 5-2 1-2-7-1-1-1-13h-2l-2-6-1-7-2-5-4 2h-3l-1 5-2 11h-2v8l-2 3-2 2 1 4-1 5-4 2-1 16h-2v5l3 1v9l6 2-1 3h-14v-4h-2l-1-8h-2l-1-2h-2l-2 10-4 6h-2v2h-3v2l-4 2-1 2h-2v2h-2l-4 8h-3l-1 4-2 4h-2l-4 8h-2v2h-2v3l-3 1-3 3-6 2-1-3h-3l1-8-2-5 1-4 3-1v-3l-5-3-1-7-3-2 1-3h4l1-6h-5l2-4-4-1h-2l-1-5 4-8-6-2-1-2 1-2h-2l1-4 3 2-1-5-7-2 1-10-5-4v-3l3-1 1-3h-6l1-6-1-1v-5l-4-1-1-9-3-1 1-7-3-1-1-8-3-2 1-7-4 1-1 7-2 2v6h-4v2l2 1-5 13h-3v8h-2l-1 6 1 3-4 1-2 4v2h3l1 8-7 6-2 6-4 2v5h3l3 9-9-2-6-2v-5h-4l-1-6 5-2 2 3 1-12-4 2h-3v-4h4l-2-4-5-2-2 1-2-1 1-3-3-2 1-7 4 1v-9l-11-4v-2l-2-1h4v-2l-2-1-1-4 4-2v2l3 1v-11h-3v2l-6-1-2-2h-2l2-6 2-7v-2l-4-1-3-2-1-3-2-1v-3l7-5v-2l-4-1-1 3h-2l-2-5 1-1v-7l-2-3 1-5-6-1-1-7v-7l-6-4 2-4v-6l-3-2v2h-3l-1-5v-9l-1-3-3 1v-5l2 1v2l6 1 2-4 12-13 8-7 9-10 1-2h2v-2l3-3 4-5 7-6 7-10 3-4h2v-2h2l2-5 2-3h2l2-5 6-7 4-6 6-4h2v-2h2l2-4 7-8 3-4h2l2-4 4-6h2l1-4 6-9 5-9h2l1-4 7-12h2l2-5 6-11 4-6 4-2 1-5 5-6 4-9h2l1-4h3v-3h2l2-5 5-8 6-5 1-3 5-5 3-1v-2h2l2-5 8-7 9-10 1-2h2v-3l5-5 9-11 11-8 10-7 5-1v-2l16-9 4-1 4-4z" fill="#2E80BA"/>
<path transform="translate(0)" d="m0 0h1920v336l-10 1h-79l-8 3h-6l-4-3-19-1-2-1v-2l-9-2-2-1-12-1-2-2-2-6-18-1-5-5-6-3-3-6-18-2-4-3-7-3v-2h-5l-3-3-1-4-12-1-3-3v-13h-13l-10-3-1-5-2-1 7-2v-2l-5-2-2-2-1-4-4 1-2-4-3-2 1-3-5-2-2-2-1-4-5-2-2-2-1-4h-18l-2 5-2 2-4 1-3 4h-7l-2-6-5-2-2-2v-13h-2v-2l7-1v-2h-10l1 4-7 1h-26l-5-5-5-4-1-7-3-1v-12l-5-2-2-2-1-4h-18v7l-2 6-2 2h-46l-3-3-1-12h-26l-1 12-3 3h-6l-3-3-1-4h-10l-2 1-2-4-3-2 1-1 1-25v-2h-26l-3 6-2 2-5 2 1 9 1 2-3 2-2 6-6 2-6 1-4 6-5 3-2 5-1 1h-12l-9-2-2-2v-5h-5l-3-3-1-5-3-2 1-1v-18h-6l-5-1-15 1v2h5l2 3v7l-3 3-28 1v2l5 2 2 2v4l9 1v1l-11 1-6 3-5 5-15 1h-11l-3-4-1-5-3-2 1-1v-10l-12-1-3-3v-6l3-3 4-1-1-3h-8l-3 6-2 2-5 2-3 5-4 2v12l-4 1-6 1-3 7-4 3-2 5-6 3-3 5-1 1h-11l-3-4v-5h-5l-3-3-1-5-3-2 1-3-20-1-3-3-1-4-13-1-3-3 1-4-1-2h-11l-1 1v5l2 2-2 7-2 2-4 1 1 4-4 2-2 3-1-1h-10l1 4-9 1-7-1 1-4h-34l1 4-14 3-7-1 2-4h4v-18l-1-1h-18l-2 6-5 3v5l-2 1-1 7 3 2-5 1-17 1-16 3h-3v-3l-2-1v-3l-4-2 1-3-5-2-2-2-2-5h-16v4 1l-9 1-7-1 1-2v-10h-26l-2 5-2 2-12 1-2 5-2 2-12 1-1 2 9 1v1l-11 1-6 3-2 5-1 1-12-1-7-1 1-4-4 1-1-12h-16v8l-1 3-6 1-4-2h-34l-3 6-1 1h-6l-2-2-2-5-5-3-3-5-3-1-18-1-1 7-2 2-4-1-3-5-1-2-10 1-4 5-9 2h-59l-3-4v-5h-13l-7-1 1-4h-10l-1 5-12 1h-12l-3-3-2-5-10 1-4 5-9 2h-12l-23-1-3-3v-5l-8 1-2 3-3-1 1 4-11 1-3 2-1-15h-18l-2 5-2 2h-6l-3-3-1-4-5-2-2-2-1-4h-10l-2 5-2 2-6 2-2-4-3-2 1-1v-10l-5-2-2-2v-5l4-4h12v-4h-13l-1-1h-17l-4 2v7l-2 6-2 2-4 1-2 5-2 2-20 1-1 12-3 3-4 1-1 5h-2v2h-8v-2h-2l-1-21-20-1-3-3-2-5h-32l-1 1v10l1 2-6 5-3-1v5h-3v5l-3 3-21 1-2 3-1-1-21-1-3-2v-5h-18v5l-5 2h-29l-3-3-1-4h-26v2l12 1 3 3 2 6-12 2-2 3-1-1h-20l-2-2-28-1-7-1 3-7 2-2 12-1-1-3-41 1v10l1 2-12 1z" fill="#2E80BA"/>
<path transform="translate(1357,704)" d="m0 0h3l4 13 1 6v5l3 1v5h2v7l4 9-1 3 1 6 5 1 1-8 1-1 3-15 2-1 2-7h4l6 21v3h2l3 17 2 6 1 10 1 11 2 4v8l-9 2-8-1v2l19 1h21l8 3 9 4 4 3v2h3v2l5 2 3 1v3l4 1 4 2v2l4 1v2h4v3l5 2 3 1v2h4l1 2 3 1 40 1v-5l-8-1v-2l-8-1-1-19 1-8h2l-1-4 1-2h2v-8l2-3 3-1 1-6h2v-8h2v-2h2v2h2v-8l-3-1-1-4 3-7h2l5 12 1 1v7h2l2 7 6 1 2-16 3-12 3-3 3 1 2 3v3h2l2 11 3 7 2 6 1 8 2 5 1 19 1 6h2v2h2v-8h-2v-8h3l1-14 1-1 1-9 4-3-2-5 2-3h2l1-10 2-4 2-9 1-2h4l4 11 1 1v8h2l3 8v8h2v8h2v16h2l-1 8h3v14h6l10 5v2l8 2 4-7 2-8h2l1-2 6 15 2 7 2 1 9 1 1-5 3-3 2-6h-2l1-4 2-4h2l-1-4 3-3 3-12h4l7 18 1 1v8h2v6h8v2h2l4 5 9 2h20l7-2-1-4-1-6 4-1 3-10v-3h-7l-13 3-11 1v-2l16-4 5-1h13l-1-10-1-3 6 1-1-5 3-1 1-9 6-7 1-10h2l1-6h2l1-8h2v-2l3 1v6l3 3v8h4v4h-2l5 6v7l4 1-1 2-6-2 1-7-3 3-5-1-3-3-5 4-7 2 3 2 1 6-8 2v4h2v10l-4 1 2 4v7h-3l1 2v6l-4 2-1 2 4 1v2l-3 2h-3l1 2v6l-4 1v-2l-4-1-1 5h-2l1 7 1 1 1 16-5 4h-3v3l3 1v10l2 5-4 1-1 2h-2l2 6 1 5-3 1-1 4h-2l-2 5-3 1-2 4-1 4 5 2v2l8 1-1 6-4 1v7l2 3-1 5h10l3 5v2h5v2l7 1h8l3 1v2h3l2 8-1 16-2 4h-21l-1-1v-13l-4 1-5 1-1 3h-2l-1 3-5 2v2h-2v2l-8 1-16-1-8-2v-2l-4-2-4-4v-2l-12-3-10-4h-26l-16 3-9 5-4 3-3 1h-8v2l-3 1h-48l-8-4-4-5-8-4-1-3-7-1-4-2h-29l-5 3h-5v2l-6 2-2 4-6 1v2l-5 2h-3v3l-7 2-1 1-16 1-8-2v-2h-8v-2l-5-1-9-5-2-1v-2l-9 4-5 3h-2v2h-16l-8-2v-2h-10l-5-3 1-3h3l1-4h2v-3l-8 1-2 4-5 6-36 1-21 7-20 3-8 3-9 4-11 6h-21l-11-4-8-3-5 1-9 5-10 1v2h-19l-18-3-11-1-16-5-8-3-13-1-3-2v-5h-8l-8-3-12-3-12-5-8-4v-2h-2l-3-3v-2h-3v-2l-8-4v-2h-18v16l-5 3-5 5h-4v2l-4 2h-35l-4-2v-2l-2-1 2-2h-55l-9 1h-11l-2-1v-2h-7l-1-3h-4v-2h-4v-2l-4-2v-2h-4l-4-4-4 4h-2l-2 4-4 4h-2l-1 4-5-1v-3h-4l-4-5v-3h-3v-2l-3-1v-2l-9-2 1 5h-6l-1 5-3 5-16 1-1 1-15 2-5 2v2h-3v2l-6 4h-2v2h-5v2l-8 6h-3v2l-9 6-5 2h-37l-15-4-8-4v-2l-9-2-17-6v8h-4v2l-6 1h-18l-8-1v-2l-3-1-3-5v-2h-2l-1-3-5-5v-2l-5-2-5-6-5-2-3 4-5 3h-3v3l-19 3-10 5-5 2h-46l-1-2-11-4-7-3-8-4-10-2-3-3-3-5-3-1-2-6-6-2 3 6v2l-4-1-9-6h-3l3 4-1 1-10 1-3-5-4-2v2l-6 2v4l-5 2-19 1-8 1h-26l-6 2h-21l-3-2v-5l-3-1-3-5-4-3h-3l-3 3-4-1v-8h-12v2l-4 1v2l-4 1v2h-42v-12h5l2-3 3-1 22-1 5-3h2l2-4h4l-2-8-1-8 2-4h-5l-1-7-4-3v-5l3-4-1-4 3-3v-2h-3v-8l-2-1-5-5v-2l-2-1h4v-5l-4-1-1-5-1-2h2v-2h3v-6l-2-6v-4l-7-1-1-3 2-1 2-5-2 2h-4l1-3-1-5h4v-6l1-3h3l-1-2-10-4-1-4 3-3h2l-1-2-6-3-2-11 1-3-4-1v-3l3-3h6l-1 4h-3l3 5 3 2-1 8-1 2 7 1 1 1v5l-3-1-1 3h2v3l6 3-1 4-2 4v5l5-1 2 3-2 2 4 1v7h-5v2l3 2v7l5 2 1 4-3 2-1 5 2 3-1 5-1 3h3l2 2 7-2 1-3h3v-3h2v-2h2l2-5 2-3h2l1-4 2-4h3l1-4 3-4h2v-2h2l1-3 4-1v-2h3v-2l4-4 4-12 3-1v3h2l1 8h2v4l14-1v-2l-6-2v-9l-2-1v-5h2v-17l5-1-1-10 4-4 1-8h2v-8l3-8 4-2h3l3 5 2 9v4h2l2 13 2 2 1 5 2-5 3-2 1-7 4-16 2-2 2-8h2l7 18v6h2l2 6-1 7 3 1v6h2v16h2l2 10v11l36 1v10l14-1v-4l2-1h16l16 11 10 4 6 5v2l5 2 7 4 1-6 3 1 4 9 5 6 2 8h2l3 3v3h2v2l4 1 10 4 25 1 7 2v2h32v-2h8v-2l5-2h3v-2h3v-2h5v-3l9-7 4-2h3v-2h21l10 3 1-10h-2l-1-3h2l1-19 4-1v-10l1-2h3v-11l2-3 3-10 5-6 4 4v2h2l3 12 2 3 1 9h2l1 9 1 7 2 9v7l3 12-3 4-8 1-5 1-2 4 14-2 9-3 4-9h2l1-4 2-4h3v-5l5-5h3v2l8 1v2l4 1 12 4v2l4 2 9 3 9 1-1-4-9-2v-2h-6v-8h2l-4-4 1-7 2-4 1-10 3-5-1-6 5-2v-10l1-8h2l1-7 3-5 1-4h2l5 13 1 7 1 5h2l1 4 1 3 1 8 2 4 6-1 1-1 1-9 4-1 2-7-1-2 3-12 3-3 2-4 4 2 4 16 2 7 4 6 2 10 1 10 1 8 5 3 3 5 2 1v4h2l3 6v2l3 1v3l4 1 4 2v2l8 1v2l16 1 8 1 2-4h3v-3l-4-3 4-3 1-3h2v-11l2-7h3l1-7 1-1 1-8 4 1 3 8 3 9 1 1v5h2l1 10h2l2 7 1-1v-6l2-4 2-1 1-4-2-1h2l1-5 2-7 3-12h2l1-4 3-7 2-5 2 4 1 4h2l4 11 2 7 1 4 3 7v3l2 4-1 4h2v10l8-2h8v-2l8-1v-2l12-5 4-1v-2l5-3h5l2-4 4-1v-3l5-2h3v-2l5-3h3l2-4 12-7h2v2l4-2h12v-2h16l1-8 2-4h2l3 8v3h8l8-1v-2h4l1-3h3v-2l5-5 2-4v-8l-1-2h14l2 1 31 1 3 1v2h26l13-6 1-2 6-3h2v-2h16l10 4 8 1-3-2 7-5 10-1 5-2h3v-2l8-4 5-5 2-8 1-13 7-1 17 1 9 3 6 3 2 2h3l1-6-3-1 2-7 2-3 1-8-1-3 2-1 1-7-1-4 5-1 1-9 2-12 4-10z" fill="#123C56"/>
<path transform="translate(1357,704)" d="m0 0h3l4 13 1 6v5l3 1v5h2v7l4 9-1 3 1 6 5 1 1-8 1-1 3-15 2-1 2-7h4l6 21v3h2l3 17 2 6 1 10 1 11 2 4v8l-9 2-8-1v2l19 1h21l8 3 9 4 4 3v2h3v2l5 2 3 1v3l4 1 4 2v2l4 1v2h4v3l5 2 3 1v2h4l1 2 3 1 40 1v-5l-8-1v-2l-8-1-1-19 1-8h2l-1-4 1-2h2v-8l2-3 3-1 1-6h2v-8h2v-2h2v2h2v-8l-3-1-1-4 3-7h2l5 12 1 1v7h2l2 7 6 1 2-16 3-12 3-3 3 1 2 3v3h2l2 11 3 7 2 6 1 8 2 5 1 19 1 6h2v2h2v-8h-2v-8h3l1-14 1-1 1-9 4-3-2-5 2-3h2l1-10 2-4 2-9 1-2h4l4 11 1 1v8h2l3 8v8h2v8h2v16h2l-1 8h3v14h6l10 5v2l8 2 4-7 2-8h2l1-2 6 15-1 3-5-6-6 5-1 4h-2l-1 10-1 3h-2l-1 4-2 3 2 1-1 4h-2l-1 9 1 5h-2v2h-2v15l-1 2-3 1h-80v2h-24v2l-16 1-10 4-8 3-12 3h-5l-2-2v-13l-2-12-1-2v-11l-3-1-2-8-2-7-1-1v-12h-3l-3-9-2-3v-4l-2 1-3 7h-3v8h-2l-1 6h-2l-1-6-4-1-4-18-2-5h-2l-1-8h-2l-1 8h-2l-1 5-3 10-1 1-1 8h-2l-1 8 1 4-6 3 1 10-1 2h-2l-1 18-4 1-3-1v-8h-2l-2-6-1-9-1-6h-2v-8h-2l-1-8h-2l-3-7v-5l-3 1-3 11h-2l-1 6-1 2h-2v12l-2 4h-2v8h-3l-1 16h-4v16l-2 8h-2l3 5 1 1v9l-1 1h-33l-1-4 3-4h16v-2l3-2v-12h-3v-8-2-6h-2l-1-9 1-7h-2l-2-12-1-4-1-8h-2l-3-8-1-8-2-3v-5h-2l-3-8h-2l-2 8h-2l-1 5-3 6-1 10-3 6 1 6-4 1v2h-2v13l-3 2-1 16-2 7h-2v4l5 2-1 10 6 4v2h12l2 1v7h-6l-10-3v-2l-9-1-7-2v-3l-4-1-12-5v-2l-6-2-4-2-14-1v-2l-8-1v-2l-16-1v9l-4 8-8 5-12 2h-8v2l-29 6-11 2-27 1-5-3v-2h2l-2-2-13 5h-3v2l-8 1-1-1 1-9 16-2 4-4v-7l-1-3v-12h-3v-19h-2l-2-5-2-16h-2v-8h-2l-1-8-4-10-9-1v3l-2 1-2 7-1 8h-3v15l-4 2-1 11-5 2-1-3-1-4-1-2-1-5-2-3-1-7-3-6-1-7-3-4v-3l-5 2-1 8-4 8-2 12-3 5-1 7-3 4-1 11-3 3-1 16-3 9 3 1v13l7 1 1 3 8 1 4 4v5l-1 1h-66l-1-4h-3l-5-5-4-2-18-1v-9l2-3 15-1 4-2v-10l-3-7v-16h-2l-1-8 1-4h-2v-2l8-2h8v-2l8-1v-2l12-5 4-1v-2l5-3h5l2-4 4-1v-3l5-2h3v-2l5-3h3l2-4 12-7h2v2l4-2h12v-2h16l1-8 2-4h2l3 8v3h8l8-1v-2h4l1-3h3v-2l5-5 2-4v-8l-1-2h14l2 1 31 1 3 1v2h26l13-6 1-2 6-3h2v-2h16l10 4 8 1-3-2 7-5 10-1 5-2h3v-2l8-4 5-5 2-8 1-13 7-1 17 1 9 3 6 3 2 2h3l1-6-3-1 2-7 2-3 1-8-1-3 2-1 1-7-1-4 5-1 1-9 2-12 4-10z" fill="#184C6B"/>
<path transform="translate(367,764)" d="m0 0h2l7 18v6h2l2 6-1 7 3 1v6h2v16h2l2 10v11l36 1v10l14-1v-4l2-1h16l16 11 10 4 6 5v2l5 2 7 4 1-6 3 1 4 9 5 6 2 8h2l3 3v3h2v2l4 1 10 4 25 1 7 2v2h32v-2h8v-2l5-2h3v-2h3v-2h5v-3l9-7 4-2h3v-2h21l10 3 1-10h-2l-1-3h2l1-19 4-1v-10l1-2h3v-11l2-3 3-10 5-6 4 4v2h2l3 12 2 3 1 9h2l1 9 1 7 2 9v7l3 12-3 4-8 1-5 1-2 4 14-2 9-3 4-9h2l1-4 2-4h3v-5l5-5h3v2l8 1v2l4 1 12 4v2l4 2 9 3 9 1-1-4-9-2v-2h-6v-8h2l-4-4 1-7 2-4 1-10 3-5-1-6 5-2v-10l1-8h2l1-7 3-5 1-4h2l5 13 1 7 1 5h2l1 4 1 3 1 8 2 4 6-1 1-1 1-9 4-1 2-7-1-2 3-12 3-3 2-4 4 2 4 16 2 7 4 6 2 10 1 10 1 8 5 3 3 5 2 1v4h2l3 6v2l3 1v3l4 1 4 2v2l8 1v2l16 1 8 1 2-4h3v-3l-4-3 4-3 1-3h2v-11l2-7 6 1-1 3-3 2-1 9-1 1-2 11-2 5-5 3-1 11-2 1-1 17h-3l3 15-1 9h-36v-2l-8-1-10-4-6-1v-2l-8-1v-2l-24-2-8-1h-4l-2 6h-2v3l-3 1h-13v-2h-16l-7-1h-73l-8 1h-22v-2h-2v2l-7 2-10 6h-7l-1 3-6 3-3 3-8 4h-6l-1 3h-15v2l-10 2-9 4h-5v2h-24l-1-11-3-7v-16h-2l-1-5 1-6-3-7v-6h-2v-8l-2-1-1-5-1-2 1-2h-2v-7l-3-4-3-9-3-1-1-4-1 3h-2l-3 11-2 3v13l-7 1-2-4 1-3h-2l-2-9-1-4h2l-5-11-3-9-2 1-2 7-2 4v6l-2 3-1 7-2 4h-2v4h-3l2 5v3l-4 2v14h-4l-1 16h-2v8h-2v3l4 2 1 3-1 8 4 1v3l4 2 1 2h-11l-4-2-6-1-24-1-1-1v5l3 5-5-1-5-3h-3l3 4-1 1-10 1-3-5-4-2v2l-6 2v4l-5 2-19 1-8 1h-26l-6 2h-21l-3-2v-5l-3-1-3-5-4-3h-3l-3 3-4-1v-8h-12v2l-4 1v2l-4 1v2h-42v-12h5l2-3 3-1 22-1 5-3h2l2-4h4l-2-8-1-8 2-4h-5l-1-7-4-3v-5l3-4-1-4 3-3v-2h-3v-8l-2-1-5-5v-2l-2-1h4v-5l-4-1-1-5-1-2h2v-2h3v-6l-2-6v-4l-7-1-1-3 2-1 2-5-2 2h-4l1-3-1-5h4v-6l1-3h3l-1-2-10-4-1-4 3-3h2l-1-2-6-3-2-11 1-3-4-1v-3l3-3h6l-1 4h-3l3 5 3 2-1 8-1 2 7 1 1 1v5l-3-1-1 3h2v3l6 3-1 4-2 4v5l5-1 2 3-2 2 4 1v7h-5v2l3 2v7l5 2 1 4-3 2-1 5 2 3-1 5-1 3h3l2 2 7-2 1-3h3v-3h2v-2h2l2-5 2-3h2l1-4 2-4h3l1-4 3-4h2v-2h2l1-3 4-1v-2h3v-2l4-4 4-12 3-1v3h2l1 8h2v4l14-1v-2l-6-2v-9l-2-1v-5h2v-17l5-1-1-10 4-4 1-8h2v-8l3-8 4-2h3l3 5 2 9v4h2l2 13 2 2 1 5 2-5 3-2 1-7 4-16 2-2z" fill="#184C6B"/>
<path transform="translate(933,212)" d="m0 0h43l16 3 16 5 18 9 12 8 1 2 3 1 4 5 2 1v2h2l4 5 5 5 3 5 4 4v3h2l5 10 6 13 3 10 4 14 1 11v24l-4 20-4 10-5 14-3 6-4 4-2 5-3 5h-2l-1 3-2 1-3 5h-2l-1 3h-2l-2 4h-3v2l-10 7-1 2-3 1-2 2-3 1-3 3-7 3-7 4-5 1-9 3-2-1-1 2-17 3h-27l-13-2-6-1v-2l-3 1-7-2-4-2-8-3v-2l-12-4-2-2-5-3-4-4-7-6-4-2-5-5-7-8v-2h-2l-1-4-4-4-2-5-3-3-3-7-7-17-2-10-2-9 1-5h-2v-24l1-11 2-7 3-12 7-18h2l2-5 6-11 4-2 4-8 5-4 1-2h2v-2l5-4h2l2-4 10-7 5-1v-2l16-8 11-4 2-2z" fill="#83D0FE"/>
<path transform="translate(1212,513)" d="m0 0h48l4 4 2 4h18l4 4 1 3 4 1 3-1v3l-3 3-1 2h-2v2h-2l-2 6-3 1-1 2h-2l-2 4-4 1v2l-6 4-1 2h-3l-2 4-4 2v2h-2v2l-5 4-1 2h-2v3l-5 5-7 5-4 13-8 5-2 4-3 1-2 2-6 5v2h-2l-1 3h-3l-1 5-5 5-1 2h-2l-1 3-5 5v2h-2l-2 4-3 5-2 1v3l-5 5-4 6-3 2-1 3h-2l-1 3h-2l-1 5h-2l-2 5-4 6-3 3-1 2h-2l-2 5h-2l-2 6-5 5h-3l-1 3-5 1-14-6-26-1-8-4v-2l-5-2-9-8v-2h-2l-6-8-10-8-3-3 3-4v-7l-12-1-4-4v-3l-6-1-2-4v-3l-6-1-2-4v-3h-24l-1 6-1 1h-20l-2-4v-3h-8l-1 6-1 1h-12l-1-1v-20l1-1 62-1 1-6 4-2h3l1-6 4-2h3l1-6 4-2h3l1-6 1-1h13l2-2 2-5 4-2 3-6 5-2 2-3 2-4h11l4-7 8-2 6-1 2-5 5-2 2-3 2-4h11l10-2 2-5 4-1 10-2 2-5 1-1h19l4-7 2-1h18l8-1 2 1h6l4-7z" fill="#70B8EC"/>
<path transform="translate(783,800)" d="m0 0h2l5 13 1 7 1 5h2l1 4 1 3 1 8 2 4 6-1 1-1 1-9 4-1 2-7-1-2 3-12 3-3 2-4 4 2 4 16 2 7 4 6 2 10 1 10 1 8 5 3 3 5 2 1v4h2l3 6v2l3 1v3l4 1 4 2v2l8 1v2l16 1 8 1 2-4h3v-3l-4-3 4-3 1-3h2v-11l2-7 6 1-1 3-3 2-1 9-1 1-2 11-2 5-5 3-1 11-2 1-1 17h-3l3 15-1 9h-36v-2l-8-1-10-4-6-1v-2l-8-1v-2l-24-2-8-1h-4l-2 6h-2v3l-3 1h-13v-2h-16l-7-1h-73l-8 1h-22v-2h-2v2l-7 2-10 6h-7l-1 3-6 3-3 3-8 4h-6l-1 3h-15v2l-10 2-9 4h-5v2h-24l-1-11-3-7v-16h-2l-1-5 1-6-3-7v-6h-2v-8l-2-1-1-5-1-2 1-2h-2v-7l-3-4-3-9-3-1-1-4h-2l1-5 3 1 4 9 5 6 2 8h2l3 3v3h2v2l4 1 10 4 25 1 7 2v2h32v-2h8v-2l5-2h3v-2h3v-2h5v-3l9-7 4-2h3v-2h21l10 3 1-10h-2l-1-3h2l1-19 4-1v-10l1-2h3v-11l2-3 3-10 5-6 4 4v2h2l3 12 2 3 1 9h2l1 9 1 7 2 9v7l3 12-3 4-8 1-5 1-2 4 14-2 9-3 4-9h2l1-4 2-4h3v-5l5-5h3v2l8 1v2l4 1 12 4v2l4 2 9 3 9 1-1-4-9-2v-2h-6v-8h2l-4-4 1-7 2-4 1-10 3-5-1-6 5-2v-10l1-8h2l1-7 3-5z" fill="#184C6B"/>
<path transform="translate(302,843)" d="m0 0 10 2 3 3 1 12 1 4h3v16h3v8h2l1 7 1 1 2-4 4-2-1-7 3-6 2-13h2l1-5 1-3h3v-9l5 1 1 8h2l2 7 2 4 2 10 2 3 4 16v8h2v16h2v16h3l1 13-4 1v2h-16v2h-2v7l1 2 35 1 8 2 6 2v2h-2l-2 4 1 7h8v-2h-2l-3-5v-2l6 1 2 3-3 1 3 4-1 1-10 1-3-5-4-2v2l-6 2v4l-5 2-19 1-8 1h-26l-6 2h-21l-3-2v-5l-3-1-3-5-4-3h-3l-3 3-4-1v-8h-12v2l-4 1v2l-4 1v2h-42v-12h5l2-3 3-1 22-1 5-3h2l2-4h4l-2-8-1-8 2-4h-5l-1-7-4-3v-5l3-4-1-4 3-3v-2l7 2v4h-4v2h-2l-1 4h-2l5 8 6 3v3l2 1h20l1-11-5-2v-4l3-3 2-6 1-9 1-5 1-15 7-3-2-6 2-3 2-13v-3z" fill="#123C56"/>
<path transform="translate(445,339)" d="m0 0 4 1 7 2v2l5 1 6 3 5 2v2h2l6 12 3 7 5 5 2 6 4 7 4 4 4 6 11 9 5 6 5 5 7 5 3 5 5 5 2 4 4 2 1 3 5 5 2 3v5h4l4 8v3l4 2 4 4 3 6 5 5v4h3l5 8v3l4 2 4 8v3h2l4 6 2 6v4h3l3 6v2h2l3 5v3h2v2l3 1 3 5v2l4 2 1 4h2l4 7 2 1 3 7-2-7 6 1 1 1v6l-2 1 2 3v4h3l4 7 2 5 4 2-1 3-2-1 1-2h-2v2l-7-1-6-5-7-2-5-10-1-3v-3l-2-1-3-15-5-5-3-4-4-2v-3h-4l-2-6-10-10-6-5v-2l-3-1v-2l-4-2-4-4v-2h-2v-2l-5-2-4-1v-2l-7-1-3-1v-2l-5-1-7-6-3-5-3-2-6-7h-2l-4-9 1-2-2-1v-5l-3-4v-3h-2l-1-3v-8l-3-3-3-5-5-5v-2l-5-1-3-3v-2l-3-1-4-4v-2l-2-2-6-11-3-5-2-1-3-6v-4l-4-2-1-5-2-1-3-6-2-2-3-4v-2h-2v-3l-2-1-4-12-1-2-3-2-1-4z" fill="#5AA9E0"/>
<path transform="translate(818,601)" d="m0 0h44l4 8h20l4-8 5 1 1 6 14 1 2 4v3l14 1 1 1v28l-1 1-14 1-1 6-4 2h-3l-1 6-1 1h-60l-2-4v-3l-6-1-2-4v-3l-6-1-2-4v-3l-14-1-1-1v-28l4-2h3l1-6z" fill="#71B9ED"/>
<path transform="translate(1240,994)" d="m0 0h6l2 2 7 2 4 3 5 3 7 3-1 2-10 3-4 4-5 2-11 6h-21l-11-4-8-3-5 1-9 5-10 1v2h-19l-18-3-11-1-16-5-8-3v-2h-9l-5-2v-2l4-1 18-1v-2l16-2h40l11 1 13-1 1-4 2-1 12-1 2-1z" fill="#174B69"/>
<path transform="translate(1387,456)" d="m0 0h8l5 6v7l9 3 1 3h3l-1 5h-2l-2 5-3 3h-7l-1 3h-8l-9 7-5 2-2 5h-2l-1 2h-23l-3-1-3 6h-2l-1 6h-2v2l-6 3-4 4-6 1v2l-8 5-11 5h-5v2l-5 2v2l-2 1-3 5-7 5-3 7-1 4-1 2-5 3-3 5-3 3-2 5-5 1h-15l-3 1v2h-2v2l-2-1 10-10 4-2v-3h2l2-4 4-2v-2h2v-2l5-4 1-2h3l1-3 4-3h2v-2l5-3 1-2h2l1-3h3l1-4 1-2h2v-2h2l2-5h2v-5l7-4 3 1 1-3 5-2v-2l-5 3-3 2v-9l8-1 1 2-1 2 4-3h4v-2l5-3h3v-3h4l2-4h2v-4h8v-2l6-3-1-3h3v-2l6-4h2v-2h2l1-3 5-2v-3l4-1 3-3 1-4 7-1v-3z" fill="#5AA9E0"/>
<path transform="translate(1069,670)" d="m0 0h10l3 3 1 6 6 2 2 5h35l4 1h14l9-2 4-1 7-9 4-3v3h-2l-1 3h-2l-1 5h-2l-2 5-4 6-3 3-1 2h-2l-2 5h-2l-2 6-5 5h-3l-1 3-5 1-14-6-26-1-8-4v-2l-5-2-8-7 4-3v-5h-7l-1-4-2-1-4-3-3-3v-5l4-2z" fill="#4DA2E3"/>
<path transform="translate(1691,812)" d="m0 0 3 1 7 18 1 1v8h2v6h8v2h2l4 5 9 2h20l7-2-1-6 9 3-4 2-2 3-3 2-5 5h-2v4l-1 4 1 4-1 6 1 3 3 2h-3v3h-2v3l-6 2-1 1-1 7 2 1h-2v4h2l1 9 1 3h-4v6l-6 4h-2v-2h-12l-4-1v-2l-3-1v-2l7-2 1-5 1-9-3-1-1-6v-5l-1-2 1-2h-2v-16h-2l-1-8-2-6v-4-2l-3-1-3-5-2-14-5-10-2-6-2 1z" fill="#184C6B"/>
<path transform="translate(520,512)" d="m0 0 8 4v2l8 2v2h2l6 9v3h2v2h3l4 5 5 2 4 5 4 7 5 3 1 4 3 3 1 2 3 2-5 1-2 4-3-1-1 2-7 1-7 4-1 2-14 1h-3v-3l-4-2-2-2v-22l-2-1-2-4-2-2 1-2-2-1v-4l-2-1v-3h-2l-2-3v-11l6-4-1-4h-2z" fill="#59A9E0"/>
<path transform="translate(1918,614)" d="m0 0h2v109l-1-3h-3l-1-3-3-2v-3l4-3h3v-4l-5-1-1 3-1-3h-2l2-5-2-10v-3l-6-2-1-5 1-5v-4h-2v-2l-5-1 1-3h2v-8l-3-1-1 2h-2l-2-13-1-4-4 3-1-9 6 5 3 3 1-4h2l2-5 3-5 1-4 7-6 1-2z" fill="#2D7FB9"/>
<path transform="translate(207,744)" d="m0 0h4l-1 7 4 2v8l4 1-1 5-1 2 4 1 1 9 3 1 2 6-1 5-7 2-2-1 2-2-2-3 4-1 2 1v-2l-2-1 2-3-3-1-1-9-2-1-1 4-4 1-1-4 2-2h-3l-3 5-8 4-2-1 4 4 7 2 1 1v9l-5 4h-3l1-4 2-6h-3l-2 1-2 3-2-2v14l-2 2v3 5h-3l1 9-1 2-5-1h-2-4v2l6-1v2l6 1v3l-7 2 1 1v6l-4 1-4-1v3l-10-2-1-2v-6h-2v-5h-3l-1-4-7 1v-4h4l-1-5 3-4-6-1-1 4-4 1-2-4 3-3-1-6 2-2h3v2h2l-1-8h2l1-4v7l3 3h-2v2l4-1 6 3 1 4h-4v4l4-2h3v12h-3l-1-2-4 1 1 6h4v5h5l7 3 3 1-3-4v-5h-3l-1-5 5-2 2-7 3-1 2-4v-3l1-5h-3v-2l-2-1 4-4 3-1-1-5 2-3h2v-8h3l1-5 3-8-1-3h4l-1-6 2-2 1-7z" fill="#184C6B"/>
<path transform="translate(1339,555)" d="m0 0h5v2l-5 3-2 7-2 1-1 4h-2v8l-3 7-3 3-7 3-3 3-6 1-6 3h-3l-1 2h-8l-5-2-1-4-1-2 1-2-3-1 5-1 2-4 7-8 1-4 3-1 2-2 3-1 1-2h2v-2l6-3 2-2h5l3-3 3 1v-2h11z" fill="#59A9E0"/>
<path transform="translate(697 1e3)" d="m0 0h14l2 1 13 1 5 3v2l3 1-6 7-9 6-5 2h-37l-13-3v-3l-4-1-4-3h5l3-5 8-1v-2l3-2 20-2z" fill="#174B69"/>
<path transform="translate(576,980)" d="m0 0h8l8 4v4l3 1 1 2 4 1 2 7 5 5 5 3 14 1v6l-2 4-6 1h-18l-8-1v-2l-3-1-3-5v-2h-2l-1-3-5-5v-2l-5-2-7-9v-3h2v-3z" fill="#174B69"/>
<path transform="translate(36,620)" d="m0 0 4 1-1 2-1-1-1 2h-3l-1 5-1 8-3 2v4l1 2-2 6-5 9-3 8-2 4h-2v2h-3v6l1 3-6 9-1 4 1 5-4 1-1 2h-2l-1 2v-65l8 4v2l5 2 9 6h2l-3-4 1-5 3-1v-3l3-6h2l-1-3 3-9z" fill="#2E80BA"/>
<path transform="translate(1784,766)" d="m0 0 3 1v6l3 3v8h4v4h-2l5 6v7l4 1-1 2-6-2 1-7-3 3-5-1-3-3-5 4-7 2 3 2 1 6-8 2v4h2v10l-4 1 2 4v7h-3l1 2v6l-4 2-1 2 4 1v2l-3 2h-3l1 2v6l-4 1v-2l-5-1 1-4h4l2-4-6-4v-4l4-1 3-10v-3h-7l-13 3-11 1v-2l16-4 5-1h13l-1-10-1-3 6 1-1-5 3-1 1-9 6-7 1-10h2l1-6h2l1-8h2z" fill="#133F5A"/>
<path transform="translate(37,621)" d="m0 0 3 2-1 5v8l2 1v-2h2l2 5-1 8-4 2-1 3h2v-3h9l1 1v5h-3l-1 4 6 3 2 2v15h-3l-1-8-4-1-2-1h-5v-6l2-2v-4h-5l-1 6-5 5-7 4-9 2v4l5-1 2 6h2v6l-8 1v-3h2l1-5-4 2-2 3h-2l2-6-1-6 1-2h3v-2h2l1-4 5-12 4-6 1-6-2-2 3-5h2v-8l2-5h3z" fill="#123D57"/>
<path transform="translate(103,656)" d="m0 0 2 1v5l-4 3 1 10-4 6h-2v5l-6 12-4 2 1 9-4 4-1 3h-2v5l2 2-1 5-6-1-1 4h-3l1-7h2l-1-3 1-5-3 1-5-6-2-1 1-4h2l1-3 2-1-1-3-3-1-1 3-3-3v-3h2l-2-7-1-3v-5h-6l-1-7v-9h2l2 7-2 7 7 1 2 5 1 2 9 1h10l5-4 5-3h2l-1-3-2-1v-4l5 1 2 1v-4l-4-1 2-3 1-4h3z" fill="#2E80BA"/>
<path transform="translate(1835,968)" d="m0 0h7l1 1v5h-3l-1 5-4 3-6 2-3-2v4l-8 6h-2l-1 5-1 3h-3l-1 3-10 5h-10l-1-8v-14l4-4 1-4h-2v-2l8 2v2h10l6 1 1-2 4 2-1-3 5-2v2l5-2h3l1-6z" fill="#123D57"/>
<path transform="translate(752,931)" d="m0 0h13l3 1 19 1v3l-3 4v-2l-24 1-6 1 6 1v1h-96l-5 1h-10l-3-1 2-4 1-1h7v3h4l-1-3 8-3 9-1 5-1 1 1 30 1h30l4 2-2 4 4-2-1-4z" fill="#2E80BA"/>
<path transform="translate(1759,982)" d="m0 0 2 1h8l7 3v2l-8 1v3h5v16l-2 3h-12l-2-2-1-11-4 1-5 1-1 3h-2l-1 3-5 2v2l-2 1h-19l3-3 7-2 2-6 3-2h3l1-7 7-3 1-2h8l2-2z" fill="#174B6A"/>
<path transform="translate(824,962)" d="m0 0h8l4 4v2h2l2 3 2 8-5 5-4 5-1 3h-2l-1 4-5-1v-3h-4l-4-5v-3h-3v-2l-3-1v-2l-6-1v-2l-3-1 4-4 1-3 10-4z" fill="#174B69"/>
<path transform="translate(480,368)" d="m0 0 8 8 2 6 4 7 4 4 4 6 11 9 5 6 5 5 7 5 3 5 5 5 3 4v2l-7 1-8-6v-3l-4-2-7-8-3-1-4-4-4-1-6-7-2-1-2-4-3-2v-2h-3l-2-8h-4l-1-12-1-2z" fill="#71B9ED"/>
<path transform="translate(990,976)" d="m0 0h15v11l-3 7-6 6-10 3h-32l-3-1-1-3 6-1 1-2 11-1v-3l9-3 5-2 2-5 4-2z" fill="#174B6A"/>
<path transform="translate(1367,986)" d="m0 0h17l8 2 8 3v2l3 1-2 4-5 5-4 1v2h-16l-8-2v-2h-10l-5-3 1-3h3l1-4 5-1v-2z" fill="#174A69"/>
<path transform="translate(1603,989)" d="m0 0h31l6 2-1 2-8 2-5 2v2l-7 5-3 1h-8v2l-3 1h-29v-5l6-3h2v-2l14-4h2l1-4z" fill="#174B6A"/>
<path transform="translate(972,185)" d="m0 0h16l2 2v18l-5 1-2 3 3 3-10 1h-40v-1l5-1 17-1-6-1v-1h8v-7l3-1-1-5 6-4 2-5z" fill="#4CA1E2"/>
<path transform="translate(1206,915)" d="m0 0h10l1 4h6l-2 5h-2l-2 6-1 2-7 3-9 3-20 3-3 1h-9l-1-5 2-3 12 1 3-7 1-1 20-1v-3l-18-1v-4l2-2z" fill="#2D7FB9"/>
<path transform="translate(1270,824)" d="m0 0h2v5l-7 4-3 5-6 8h-2v2h-2l-1 3h-3v2l-4 1h-13l-5-4v-2l-5-2 1-5 13-4 3-3h2v-2h16v-2l11-4h3z" fill="#2E80BA"/>
<path transform="translate(224,792)" d="m0 0h6l-1 4h-3l3 5 3 2-1 8-1 2 7 1 1 1v5l-3-1-1 3h2v3l6 3-1 4-2 4v5l5-1 2 3-2 2 4 1v7h-5v2l3 2v7l5 2 1 4-3 2-1 5 2 3-1 5-1 3h3l2 2 5 1v3h-4v2h-2v8h-2v-8l-2-1-5-5v-2l-2-1h4v-5l-4-1-1-5-1-2h2v-2h3v-6l-2-6v-4l-7-1-1-3 2-1 2-5-2 2h-4l1-3-1-5h4v-6l1-3h3l-1-2-10-4-1-4 3-3h2l-1-2-6-3-2-11 1-3-4-1v-3z" fill="#14425E"/>
<path transform="translate(3,967)" d="m0 0 21 1 3 3v5h2l1 13-1 1-24 1-1 1-3 16h-1v-40z" fill="#184C6B"/>
<path transform="translate(207,744)" d="m0 0h4l-1 7 4 2v8l4 1-1 5-1 2 4 1 1 9 3 1 2 6-1 5-7 2-2-1 2-2-2-3 4-1 2 1v-2l-2-1 2-3-3-1-1-9-2-1-1 4-4 1-1-4 2-2h-3l-3 5-8 4-2-1 4 4 7 2 1 1v9l-5 4h-3l1-4 2-6h-3l-2 1-2 3-2-2v14l-2 2-2-6-4 1v-2l-2-1 4-4 3-1-1-5 2-3h2v-8h3l1-5 3-8-1-3h4l-1-6 2-2 1-7z" fill="#123D58"/>
<path transform="translate(1902,966)" d="m0 0h5l1 4h2l1 2h3l1-4h2l2 3h1v34l-8-1-5-4-3-3v-2l-3-1-2-10 1-8v-9z" fill="#174A69"/>
<path transform="translate(108,647)" d="m0 0 4 1v5l-1 1v7l4-1 2 3v10l1 2-1 2h-3v3l-5-1-1 8-2 5h-3l-1 4-3 2-5-1-2-1-2 4h-3l1 5 5-1 1 3-8 4-1-11 5-4 3-5 2-7 1-3h2l2-5 1-1-1-11 4-2v-6l2-6h3z" fill="#113851"/>
<path transform="translate(455,461)" d="m0 0h10l9 1 3 1 5 6v3h2l5 9 3 7h-12l-5-4-3-1v-2l-4 1-16-16v-2l-2-1z" fill="#59A9E0"/>
<path transform="translate(57,679)" d="m0 0 4 1 1 7 2 2v6h-2l3 5 1-2 4 1v4l-5 4-1 3 3 1 5 5h2v8h-2l1 3-2 4 3-1 1-3h6l-1-5-1-2 1-4h2l1-4 1 2-1 2 3 1-1 2-4-1 1 3 4 3-1 7-4 1-1 3-5-1h-3l-3 2-4-5v-5l-3-8-1-4 1-3-5-4 1-4 2-2v-2h-4v-6l2-2h3l-1-4h-2v-3l2-1-3-2z" fill="#123D58"/>
<path transform="translate(1884,627)" d="m0 0 4 1v5l-1 1v6h4l2 4 1 13 2 1h-5l-3 3-3-2-2 5h-4l-4-1 3-4-4 3v5l-3 5-1 2 3 1v2l-4-1-2 3-2-1 4-7 1-4h2v-7h2v-4l-3-1v-2l6 1v-5l-1-3v-3h4v-7l1-4v-2h4z" fill="#0F2E45"/>
<path transform="translate(277,968)" d="m0 0 4 1 1-1h22l5 11 1 5h2l1 2 5 2v1h-21l-1-1v-5l-3-1-3-5-4-3h-3l-3 3-3-1z" fill="#174B6A"/>
<path transform="translate(1798,984)" d="m0 0h5l2 3h5l2 2 4 1v6l-2 4h-3l-1 3-10 5h-9v-20l1 2 4-2z" fill="#174A69"/>
<path transform="translate(1768,814)" d="m0 0h2v10l-4 1 2 4v7h-3l1 2v6l-4 2-1 2 4 1v2l-3 2h-3l1 2v6l-4 1v-2l-5-1 1-4h4l2-4-6-4v-4l4-1 3-10v-3h-7l-13 3-11 1v-2l16-4 5-1h13v-8l2-2h4z" fill="#133E59"/>
<path transform="translate(400,375)" d="m0 0h2l3 6 1 3h2l2 6 6 10v12l-5 1-5-3-3-5-4-1v-26z" fill="#59A9E0"/>
<path transform="translate(1799,804)" d="m0 0 3 4v2h2l3 6-4 2 2 6 4 2 5 3 1-4 5 2 1-3h3v-4l5 1v-5l-3-3 5-1 1 9-1 3-5-1 1 4-4-1-1 2 2 1-3 1-1 2-5 1-4-1-1 4-4 1-2-2v-3l-3-2-1-5-1-3h-2l-6-12 3-3z" fill="#133E59"/>
<path transform="translate(10,688)" d="m0 0 1 3-1 4 3 5-1 6 1 9-2 2h-5v3h2v5l3 3-1 4-8 4h-2v-30l1-2h2l1-3h4l-2-6 3-6z" fill="#133F5A"/>
<path transform="translate(1432,499)" d="m0 0 6 1 5 2 1 5-3 5h-2l-2 5-4 11h-9l-3-3v-6l4-4 1-5 5-6-3-1z" fill="#58A8E0"/>
<path transform="translate(310,936)" d="m0 0h15l-1 8 5 5 4 2 11 1v11l-5-1-6-3-10-6-3-1-4-4-4-2v-2h-3v-6z" fill="#184C6B"/>
<path transform="translate(1376,464)" d="m0 0h9v8l-5 8h-4v2l-6 3-7 2-6 2h-5l-1 2-2-1v-2h3v-2l6-4h2v-2h2l1-3 5-2v-3l4-1 3-3z" fill="#71B9ED"/>
<path transform="translate(1852,722)" d="m0 0 4 5-2 6-3 3h4l-2 4-3 4 5 2v5l-4 3-6-1v-6l-3 3v3l-5 1-1 4 3-2 5 1 5 6v5l-4-1-3-1 2 4-4-2v-6l-3-2h-3l-1-8 7-3 3-7 2-5h3l2-7h3z" fill="#154562"/>
<path transform="translate(1080,940)" d="m0 0h8l2 4v8h-2v4l-11 2h-5v2l-7 2h-9l1-5 5-5h2v2h6l8-3 1-2z" fill="#184C6B"/>
<path transform="translate(786,601)" d="m0 0h20l1 5-4 2h-3l-1 14-5 1-2-4v-3l-6-1-1-1v-12z" fill="#71B9ED"/>
<path transform="translate(1814,836)" d="m0 0h2v2l8-2v5l-3 1 1 3 2 1v2h-4l1 2 3 1v4l3 1v3l-3 1-4-2 1 4-5 2v4l-8 2 1-4-1-4 6-2h2l1-3 3-2-4-2-1-5-9-1-1-5 3-1 1-2 5 2 2 3h2l1-2-6-2z" fill="#123D57"/>
<path transform="translate(1405,926)" d="m0 0 5 1 6 2 8 1 2 3v7l-5 4h-13l-1-8-3-5z" fill="#184C6B"/>
<path transform="translate(155,790)" d="m0 0h1v7l3 3h-2v2l4-1 6 3 1 4h-4v4l4-2h3v12h-3l-1-2-4 1 2-1 1-6-6-1v-2l-8-1-1 4-4 1-2-4 3-3-1-6 2-2h3v2h2l-1-8h2z" fill="#184C6C"/>
<path transform="translate(242,856)" d="m0 0 4 1v7l5 2 1 4-3 2-1 5 2 3-1 5-1 3h3l2 2 5 1v3h-4v2h-2v8h-2v-8l-2-1-5-5v-2l-2-1h4v-5l-4-1-1-5-1-2h2v-2h3v-6l-2-6z" fill="#13405B"/>
<path transform="translate(942,848)" d="m0 0h2v9h-2l2 4h-2l1 4h-2l1 5-1 2h-2v8l-5 1-1 3 3 1v3h-2l1 4-3 3-4-1-1-5-3-1-2-9-2-3v-11l3 2v5h2l1 10h2l2 7 1-1v-6l2-4 2-1 1-4-2-1h2l1-5 2-7 1-4z" fill="#184C6B"/>
<path transform="translate(140,740)" d="m0 0 6 2 1 3-2 6 1 2-4 4 3-1 1 3 6 1v-2h3l1 2v9l-2 1-3-2 1-2-3 3v3l3 1-1 3-7-1v3l-6-1 3-1-1-3 4-2 3-1-1-2 3-4h2l-1-2-6-1-7-4 1-3 2-1-4-2v-6h4l3 3 1-4-3-1z" fill="#164865"/>
<path transform="translate(1683,832)" d="m0 0h2l-1 10-1 9-3 3v4l-4 2-1 4v8h-5l-2-4-1-4-1-8-2-4 12 2 1-5 3-3 2-6h-2l1-4z" fill="#184C6B"/>
<path transform="translate(778,937)" d="m0 0 7 2 2-1-1 4h-2v3l-3 1h-13v-2h-16l-7-1-1-2h10l-2-2z" fill="#184E6E"/>
<path transform="translate(98,679)" d="m0 0h3l-1 6 4-2 4 1-2 8h-3l-1 4-3 2-5-1-2-1-2 4h-3l1 5 5-1 1 3-8 4-1-11 5-4 3-5 2-7 1-3h2z" fill="#113953"/>
<path transform="translate(3,967)" d="m0 0 21 1 3 3v5h2l1 13-1 1-24 1-1 1-3 16h-1v-17l4-2h23l-1-13-7-1-3-3-10-1-6 2v-5z" fill="#123C56"/>
<path transform="translate(189,797)" d="m0 0 3 3-1 5 1 8h-3l1 9-1 2-5-1h-2-4v2l6-1v2l6 1v3l-7 2 1 2-4-2v-5h-3l-1-5 5-2 2-7 3-1 2-4v-3-6z" fill="#14425F"/>
<path transform="translate(1892,644)" d="m0 0h1l1 13 2 1h-5l-3 3-3-2-2 5h-4l-4-1 3-4-4 3v5l-3 5-1 2 3 1v2l-4-1-2 3-2-1 4-7 1-4h2v-7h2v-4l-3-1v-2l7 1 1 4 5-4 1 3 1-4h2l-1-5h3v4l2 1z" fill="#14425E"/>
<path transform="translate(950,832)" d="m0 0 2 4 1 4h2l4 11 2 7 1 4 3 7v3l2 4-1 4h2v8h-3l-3-8 3-6-5-1 2-6h-2v-3h-2l-2-13-2-7-7-1-1 5h-2l1-4 3-7z" fill="#184C6B"/>
<path transform="translate(1134,938)" d="m0 0h2v2l3 1 13 1 6 2-2 2-4 1h-27l-2-1 2-5 3-2z" fill="#2E80BA"/>
<path transform="translate(1861,680)" d="m0 0 2 2 1 8-5 6h2l-1 3-3-1 3 5 1 1 1 8h-6v5h3v3h-7l-5-5-1-3 4-2 1-3 6-1-1-10h2l1-4 3-5z" fill="#10344C"/>
<path transform="translate(801,880)" d="m0 0h15l2 2v4l-19 1-2 1h-11l2-5 4-1 8-1z" fill="#2E80BA"/>
<path transform="translate(236,839)" d="m0 0 4 3 1-2 4 1v3l-1 1 4 1v7h-5v3h-6l-3-2v-2l2-1 2-5-2 2h-4l1-3-1-5z" fill="#123C56"/>
<path transform="translate(399,388)" d="m0 0 5 5 1 8 4 1 2 3 5 1v6l-5 1-5-3-3-5-4-1z" fill="#4DA2E4"/>
<path transform="translate(192,960)" d="m0 0h9l3 5v5l-2 2h-10l-4-4 4-1v-3l-4-1v-2z" fill="#123C56"/>
<path transform="translate(83,712)" d="m0 0 1 2-1 2 3 1-1 2-4-1 1 3 4 3-1 7-4 1-1 3-5-1-6-3 1-5-5-2 2-4v2l5 1v-7h2v8h-2l1 3-2 4 3-1 1-3h6l-1-5-1-2 1-4h2z" fill="#123E58"/>
<path transform="translate(1584,835)" d="m0 0 8 1v2l8 1v1h-8v2l-11 2-5 2h-8l-1-4 1-2 12-1z" fill="#2E80BA"/>
<path transform="translate(1902,966)" d="m0 0h5l1 4h2l1 2h3l1-4h2l2 3v3h-8v2h-7v5l-2 1v9l2 4-3-1-2-10 1-8v-9z" fill="#123C56"/>
<path transform="translate(1762,822)" d="m0 0h3v8l-1 2h-2l-1 4-3 4v-5l1-3v-3h-7l-13 3-11 1v-2l16-4 5-1h13z" fill="#184C6B"/>
<path transform="translate(57,679)" d="m0 0 4 1 1 7 2 2v6h-2l3 5 1-2 4 1v4l-5 4-1-3-3-1-1-4h-4v-6l2-2h3l-1-4h-2v-3l2-1-3-2z" fill="#14415D"/>
<path transform="translate(155,790)" d="m0 0h1v7l3 3h-2v2l4-1 6 3 1 4h-5v2l-4-1-6-4-3 3-2-1-1-5 2-2h3v2h2l-1-8h2z" fill="#133F5A"/>
<path transform="translate(1768,814)" d="m0 0h2v10l-4 1 2 4v7h-3l1 6-1-2-6 2v-5l3-5h2v-8l1-2h-3l1-5 5-1z" fill="#113B55"/>
<path transform="translate(1829,812)" d="m0 0h2l1 9-1 3-5-1 1 4-4-1-1 2 2 1-3 1-1 2-5 1h-8l1-7 6 3 1-4 5 2 1-3h3v-4l5 1v-5l-3-3z" fill="#14425E"/>
<path transform="translate(173,849)" d="m0 0 7 1 1 3-1 3-5-2 1 12-5-2-5-5v-3h-3l1-4 4-1v5h4v-6z" fill="#123C56"/>
<path transform="translate(1363,785)" d="m0 0h6l2 8 2 4 1 3-9-2-5-3v-7z" fill="#2E80BA"/>
<path transform="translate(79,736)" d="m0 0h8l-2 4-2 1-3-1v2l-2 1 1 9-6-1-5 1 1-6 4-3z" fill="#123D58"/>
<path transform="translate(1898,656)" d="m0 0h2v8l-3 3 5 1v2h2l1 8-1 3v3l6 1 1 4 1 7-4-3 1-7h-6l-2-7 1-4-1-4-5-3-2 4-3-1 1-2h2l-1-7 4-2 2 1z" fill="#13405C"/>
<path transform="translate(36,620)" d="m0 0 4 1-1 2-1-1-1 2h-3l-1 5-1 8-3 2v4l1 2-2 6-2 3-4-2-1-5 4-2v-3l3-6h2l-1-3 3-9z" fill="#2D7FB8"/>
<path transform="translate(712,925)" d="m0 0h16l7 1 1 2-2 2h-28l-2-3 1-1z" fill="#2E80BA"/>
<path transform="translate(34,152)" d="m0 0h12l2 2-1 5-1 1h-12l-2-2 1-5z" fill="#4DA2E4"/>
<path transform="translate(1559,841)" d="m0 0 3 1 1 5-3 1v2l-19 2-1-4 5-2h8z" fill="#2E80BA"/>
<path transform="translate(234,814)" d="m0 0 4 1v5l-3-1-1 3h2v3l6 3-1 4-2 4v5h2l-1 2-4-4v-5l1-3h3l-1-2-10-4-1-4 3-3h2z" fill="#164765"/>
<path transform="translate(1775,792)" d="m0 0v3l-3 5 3 2 1 6-8 2v6l-5 2-2 4v-6l-1-3 6 1-1-5 3-1 1-9z" fill="#13405B"/>
<path transform="translate(104,712)" d="m0 0h4l-1 4-3-1v2h5v2h-2l-2 4-2 7-4 2h-5v-4l6-2 1-8v-4h3z" fill="#14425F"/>
<path transform="translate(5,708)" d="m0 0h2v4h3l-1 3h-4v6l1 4-5 6h-1v-19l4-2z" fill="#184C6B"/>
<path transform="translate(158,811)" d="m0 0h2v2l6 1-1 6-2 1-2 3-2-1-7 1v-4h4l-1-5z" fill="#10344D"/>
<path transform="translate(1836,795)" d="m0 0 3 1-1 5 1 2 2-1 1 6h-4v-3h-4l-3-3-2 7-3-1-3-2 1 4h-2v-2h-2l1-4 3-1 5 3v-6l3-1 3 1z" fill="#154360"/>
<path transform="translate(31,686)" d="m0 0 3 1 1 6-2 3-1 9-8 2-1-3 3-3 3-7v-6z" fill="#123C56"/>
<path transform="translate(522,168)" d="m0 0h12l2 2-1 4-1 1h-12l-2-2 1-4z" fill="#4DA2E4"/>
<path transform="translate(1852,722)" d="m0 0 4 5-2 6-3 3h4l-4 8-3 1h-4v-7l4-1 2-7h3z" fill="#123C56"/>
<path transform="translate(1843,742)" d="m0 0 2 2h7l3 2v5l-4 3-6-1v-6l-3 3v3l-3-1z" fill="#1A5074"/>
<path transform="translate(942,940)" d="m0 0 5 2 1 2v8h-9v-9z" fill="#184C6B"/>
<path transform="translate(912,848)" d="m0 0 4 1 3 8 1 7h-2l-1-2h-5l-1 2h-2l1-7 1-1z" fill="#174B6A"/>
<path transform="translate(5,717)" d="m0 0 1 3h2v5l3 3-1 4-8 4h-2v-5l5-6-1-7z" fill="#123C56"/>
<path transform="translate(19,678)" d="m0 0 2 2 1 4h2v6l-8 1v-3h2l1-5-4 2-2 3h-2l3-9z" fill="#123C57"/>
<path transform="translate(722,224)" d="m0 0h12l2 2v3l-2 1h-12l-2-1 1-4z" fill="#2E80BA"/>
<path transform="translate(131,717)" d="m0 0 4 1v4l1 5h2l1-4 4 2 1 3-6 3-4-4v-3l-5-1 1 3h-2v-2l-3-1 3-3z" fill="#133F5A"/>
<path transform="translate(1173,920)" d="m0 0h3l2 4-3 5-4 1-10-2v-2l4-2 7-1z" fill="#2E80BA"/>
<path transform="translate(688,640)" d="m0 0 9 9h6l2 2-1 4-5 1-4-3-4-2-1-3v-3l-2-2z" fill="#6DB6EC"/>
<path transform="translate(1784,334)" d="m0 0h6l-1 3-4 2-3 3-7 2-4 1v-3l6-3 2-3z" fill="#2E80BA"/>
<path transform="translate(44,640)" d="m0 0 2 4-1 4h6l2 7-3 6h4l-1 3-7-4 2-4h3l-1-5h-7l-2-1v3h-2l1-4 3-1z" fill="#2C7DB6"/>
<path transform="translate(1884,627)" d="m0 0 4 1v5l-1 1v9h-4l-1-3-2-1 1-9h4z" fill="#133F5A"/>
<path transform="translate(672,894)" d="m0 0 8 1v2h8v5h-9l-4-4v-2h-3z" fill="#2E80BA"/>
<path transform="translate(120,675)" d="m0 0 4 2v6l-2 4-3 5-7-1v-2l4-1-1-7h8l-1-4h-2z" fill="#154461"/>
<path transform="translate(1912,725)" d="m0 0 5 1 3 3v11h-3l-3-4 1-3 2 1 1-2-6-1v-4z" fill="#184C6D"/>
<path transform="translate(486,891)" d="m0 0 5 2 1 11-1 2h-3l-3-10-1-4z" fill="#2E80BA"/>
<path transform="translate(103,656)" d="m0 0 2 1v5l-4 3 1 10-4 6-2-1v-3l-2-1v-4l5 1 2 1v-4l-4-1 2-3 1-4h3z" fill="#2A78AE"/>
<path transform="translate(1832,775)" d="m0 0 3 1-3 1v8l-5-1v2l3 1v3l-3 1 2 1v4h-5v-5l1-4v-4l5-1-1-4z" fill="#14425F"/>
<path transform="translate(1861,680)" d="m0 0 2 2 1 8-5 6h2l-1 3-3-1 3 5 1 1 1 8h-6l3-1-1-7-2-2v-6h2l1-4 3-5z" fill="#133F5A"/>
<path transform="translate(102,663)" d="m0 0h5v12h-2l-1 3-2-1-2-13z" fill="#0F3047"/>
<path transform="translate(149,764)" d="m0 0 2 1-2 4v3l3 1-1 3-7-1v3l-6-1 3-1-1-3 4-2 3-1-1-2z" fill="#154563"/>
<path transform="translate(207,744)" d="m0 0h4l-1 7 3 1-2 1-3-1-2 2v6l-5 5-1-5h4l-1-6 2-2 1-7z" fill="#14425F"/>
<path transform="translate(1919,708)" d="m0 0h1v15l-1-3h-3l-1-3-3-2v-3z" fill="#2E80BA"/>
<path transform="translate(122,688)" d="m0 0 4 1 2 2v14h-8l-1 3-3-2v-2l-4-1 1-2 4 1 9 2-1-6 1-2-1-5z" fill="#13405B"/>
<path transform="translate(4,989)" d="m0 0h21v1l-20 1-1 1-3 16h-1v-17z" fill="#133F5A"/>
<path transform="translate(1768,814)" d="m0 0h2v10l-4 1-1 3-1-4 1-2h-3l1-5 5-1z" fill="#123C56"/>
<path transform="translate(1,737)" d="m0 0 4 1 3 4-2 4-3 2h-3v-10z" fill="#154563"/>
<path transform="translate(162,821)" d="m0 0 2 3v3h4v13h-2l-1-2v-6h-2v-5h-3v-3h2z" fill="#14415D"/>
<path transform="translate(140,740)" d="m0 0 6 2 1 3-2 6-3 1-6-1v-6h4l3 3 1-4-3-1z" fill="#174967"/>
<path transform="translate(283,973)" d="m0 0 4 1 5 4 2 4 2 1v3h-2v-2h-2l-2-5-6 1-4-3z" fill="#113B54"/>
<path transform="translate(136,735)" d="m0 0 3 1 3 7h3l-1 6-4-2v-2l-4-1-2-5 2-1 2 1v-2h-2z" fill="#123B55"/>
<path transform="translate(93,691)" d="m0 0 1 3-4 6h-3l1 5 5-1 1 3-8 4-1-11 5-4z" fill="#14415D"/>
<path transform="translate(36,620)" d="m0 0 4 1-1 2-1-1-1 2h-3l-1 5-1 8-3 2-1 3h-2l2-6h2l-1-3 3-9z" fill="#2E80BA"/>
<path transform="translate(241,840)" d="m0 0 4 1v3l-1 1 4 1v7l-5-1 2-1-2-3h-3l-1-2-5-2 1-2 7 2 1-2z" fill="#184C6B"/>
<path transform="translate(463,882)" d="m0 0 4 1-2 7-1 4v4l-4-2v-5h2v-8z" fill="#2E80BA"/>
<path transform="translate(1845,760)" d="m0 0 3 1 1 7-4-1-3-1 2 4-4-2v-7l5 1z" fill="#1C567B"/>
<path transform="translate(109,663)" d="m0 0 5 2 1-2 1 1v7l-2 2h-4l-1-3z" fill="#0E2B40"/>
<path transform="translate(0,712)" d="m0 0 4 1-1 8 2 3-5 5z" fill="#2E80BA"/>
<path transform="translate(1307,511)" d="m0 0h5l1 2-1 3-5 3-3 2v-9z" fill="#71B9ED"/>
<path transform="translate(1880,698)" d="m0 0 2 1-1 5-1 3-4 1 2 2-1 1h-5l6-12z" fill="#164766"/>
<path transform="translate(253,890)" d="m0 0 5 1v3h-4v2h-2v8h-2v-8l-2-1v-2l4-1z" fill="#123C57"/>
<path transform="translate(213,753)" d="m0 0h1v8l3 1-5 1h-4l-1 2 1-6-1-3h5z" fill="#154460"/>
<path transform="translate(59,702)" d="m0 0 6 1-1 7 2 1-2 2-7-6 1-4z" fill="#113952"/>
<path transform="translate(1892,644)" d="m0 0h1l1 13 2 1h-5l-3 3-1-2h2v-3h2v-2h-4l-1 2v-3h2l-1-5h3v4l2 1z" fill="#123E59"/>
<path transform="translate(108,647)" d="m0 0 4 1v5l-2 1v-3l-2 2v5l1 4h-4l-1-6 2-6h3z" fill="#154461"/>
<path transform="translate(1914,288)" d="m0 0h6v7l-7-1-1-4z" fill="#4DA2E4"/>
<path transform="translate(180,824)" d="m0 0h4v2l6 1v3l-7 2 1 2-3-1 1-8z" fill="#13405B"/>
<path transform="translate(64,723)" d="m0 0 7 3-1 5 2 1-2 4-5-5v-5z" fill="#123C56"/>
<path transform="translate(111,672)" d="m0 0h3v3h3v2h-3v3l-8-1 1-3h3z" fill="#194E6F"/>
<path transform="translate(707,224)" d="m0 0 4 1 1 4-3 3-4-1-1-4z" fill="#2E80BA"/>
<path transform="translate(1149,930)" d="m0 0 4 1v4l-3 2h-5l-1-4z" fill="#2E80BA"/>
<path transform="translate(101,675)" d="m0 0 1 2h2v3l5 1v2l-9 2 1-6h-2z" fill="#164866"/>
<path transform="translate(208,751)" d="m0 0 5 2-1 4-2-1-1 2v-2h-2l2 4-4 2v-8z" fill="#0F3249"/>
<path transform="translate(1830,804)" d="m0 0 2 1-2 6h2l-1 2h-6l-3-7h3l4 3z" fill="#10364F"/>
<path transform="translate(1844,770)" d="m0 0 3 2-1 6-3 3-5-1-2-4h4v3l3-3z" fill="#14425E"/>
<path transform="translate(1913,720)" d="m0 0h6l1 9-1-2-6-2-1-4z" fill="#11364E"/>
<path transform="translate(100,724)" d="m0 0 1 2 3 1-2 4-8 1v-4l6-2z" fill="#164665"/>
<path transform="translate(72,716)" d="m0 0h2v8h-2l1 3-1 5-3-1 1-5-5-2 2-4v2l5 1z" fill="#184C6B"/>
<path transform="translate(1872,661)" d="m0 0 2 1v5l-3 5-1 2 3 1v2l-4-1-2 3-2-1 4-7 1-4h2z" fill="#13405B"/>
<path transform="translate(48,976)" d="m0 0 6 1-1 4-5 1v2h-4l1-6 4 2 1-3z" fill="#123C56"/>
<path transform="translate(1829,812)" d="m0 0h2l1 9-1 3-5-1-2 1v-4l5 1v-5l-3-3z" fill="#144360"/>
<path transform="translate(1831,799)" d="m0 0v3l-2 7-3-1-3-2 1 4h-2v-2h-2l1-4 3-1 5 3v-6z" fill="#164764"/>
<path transform="translate(158,811)" d="m0 0h2v2l6 1-1 2-5 1v2h-4l-1-4z" fill="#123C57"/>
<path transform="translate(150,808)" d="m0 0h5l3 3-6-1-1 4-4 1-2-4z" fill="#123C56"/>
<path transform="translate(134,723)" d="m0 0 2 4h2l1-4 4 2 1 3-6 3-4-4z" fill="#14415C"/>
<path transform="translate(1910,704)" d="m0 0h2l1 2 1-2 5 1v4l-6 3-1-4-2-1z" fill="#133D58"/>
<path transform="translate(568,989)" d="m0 0 4 2 8 7 4 5-1 2-5-5v-2l-5-2z" fill="#123C56"/>
<path transform="translate(1912,696)" d="m0 0 1 3-4 5-5-1v-2l2-1 1-3z" fill="#14415D"/>
<path transform="translate(182,819)" d="m0 0 1 3-5 1v2h4l-1 7h-1v-5h-3l-1-5z" fill="#154461"/>
<path transform="translate(103,656)" d="m0 0 2 1v5l-4 3 1 8-1-3-4-1 2-3 1-4h3z" fill="#2E80BA"/>
<path transform="translate(39,626)" d="m0 0 2 4 1 3h2l2 7-3-3v-2h-2v2l-3-1v-8z" fill="#2E80BA"/>
<path transform="translate(1884,627)" d="m0 0 4 1v5l-3 1-1 3-1-4-2-1v-2h4z" fill="#10334B"/>
<path transform="translate(633,568)" d="m0 0 6 1 1 1v6h-4z" fill="#71B9ED"/>
<path transform="translate(189,797)" d="m0 0 3 3-1 5 1 7h-2l-1-2-2-1 2-2-1-7z" fill="#184D6E"/>
<path transform="translate(113,660)" d="m0 0h2l2 3v10l1 2h-4l1-4v-7l-4 2 1-5z" fill="#14425E"/>
<path transform="translate(1808,826)" d="m0 0 6 3 1-2v5l-8 1z" fill="#184C6B"/>
<path transform="translate(129,704)" d="m0 0 6 2-1 6 2 4-4-2-3-1v-2l3-1 1-4h-5z" fill="#14415D"/>
<path transform="translate(1858,704)" d="m0 0 1 3-6 2-1 5h-2l-2 2-2-4 4-2 1-3 6-1z" fill="#154562"/>
<path transform="translate(977,704)" d="m0 0 6 1 1 2-4 3-4-1z" fill="#6EB7EC"/>
<path transform="translate(44,640)" d="m0 0 2 4-1 4h3v3l-7-1v3h-2l1-4 3-1z" fill="#2F81BB"/>
<path transform="translate(175,836)" d="m0 0 9 1v2l-4 1-4-1v3l-8-1 3-2 3 1z" fill="#123C56"/>
<path transform="translate(240,829)" d="m0 0 1 3-2 4v5h2l-1 2-4-4v-5l1-3h3z" fill="#154460"/>
<path transform="translate(37,621)" d="m0 0 3 2-2 9h-1v-6l-5 5 2-7h3z" fill="#14425D"/>
<path transform="translate(129,729)" d="m0 0 4 1 3 1v4h-6z" fill="#133F5A"/>
<path transform="translate(231,818)" d="m0 0h2v6l1 2-5-1-1-4z" fill="#123C56"/>
<path transform="translate(141,751)" d="m0 0 5 1-3 3v5l-6-3 1-3 2-1z" fill="#133F5A"/>
<path transform="translate(1898,656)" d="m0 0h2v8l-5 2v-2l-2-2 4-2 2 1z" fill="#184B6B"/>
<path transform="translate(1883,654)" d="m0 0 2 1v2h2v-3h4v2h-2v3h-7z" fill="#194E6F"/>
<path transform="translate(50,654)" d="m0 0 1 2h-3l-1 4 2 2h-2l-1 3h-2l1-4-1-6z" fill="#184C6B"/>
<path transform="translate(584 1e3)" d="m0 0 3 1 5 7v3l-3-1-3-5v-2h-2z" fill="#123C56"/>
<path transform="translate(1780,809)" d="m0 0h2v8l-2 2h-4v-3h4z" fill="#123C56"/>
<path transform="translate(1852,722)" d="m0 0 4 5-2 6-5 2 1-5h3z" fill="#154461"/>
<path transform="translate(94,710)" d="m0 0h2v5l-3 1-5-1 1-3 4-1z" fill="#13405B"/>
<path transform="translate(800,847)" d="m0 0h4v5l-4 4z" fill="#2E80BA"/>
<path transform="translate(1766,812)" d="m0 0 2 1v3l-5 2-2 4v-6l-1-3 6 1z" fill="#184C6B"/>
<path transform="translate(34,651)" d="m0 0h1l1 6-5 2h-3v-3h3v-2h3z" fill="#1F5C84"/>
<path transform="translate(1898,347)" d="m0 0 5 1v4h-6z" fill="#2E80BA"/>
<path transform="translate(746,224)" d="m0 0h3l1 5-4 1-2-1 1-4z" fill="#2E80BA"/>
<path transform="translate(595,216)" d="m0 0 4 1 1 4-5 1-1-4z" fill="#2E80BA"/>
<path transform="translate(824,880)" d="m0 0h5l-1 4-5 2-1-4h2z" fill="#2E80BA"/>
<path transform="translate(1854,712)" d="m0 0 2 2v3h3v3h-5l-1-7z" fill="#205F88"/>
<path transform="translate(1743,704)" d="m0 0h5l4 5-4 1-5-4z" fill="#63AFE7"/>
<path transform="translate(688,640)" d="m0 0 5 5 2 5-1 3-4-4 1-3-3-3z" fill="#5FADE7"/>
<path transform="translate(1755,995)" d="m0 0h5l-1 4-2 1-1-2-4 1-3 1v-2z" fill="#123C56"/>
<path transform="translate(1864,970)" d="m0 0 3 4 5-1v3h-8l-1-4z" fill="#123C56"/>
<path transform="translate(1847,760)" d="m0 0h5l2 2v3h-5z" fill="#13405C"/>
<path transform="translate(136,745)" d="m0 0h4l2 5-6 1z" fill="#20608A"/>
<path transform="translate(1906,709)" d="m0 0 3 1v2h3l-1 3h-3l-3-1z" fill="#123D57"/>
<path transform="translate(99,706)" d="m0 0h5v4l-8-1v-2z" fill="#123C56"/>
<path transform="translate(98,679)" d="m0 0h3l-1 9-2-1-2-6h2z" fill="#0F2E44"/>
<path transform="translate(1871,653)" d="m0 0 7 1v4h-3v3l-3-1h2v-4l-3-1z" fill="#164764"/>
</svg>
